<?xml version="1.0" encoding="UTF-8"?>
<svg id="Layer_2" data-name="Layer 2" xmlns="http://www.w3.org/2000/svg" xmlns:xlink="http://www.w3.org/1999/xlink" viewBox="0 0 66.83 36.49">
  <defs>
    <style>
      .cls-1 {
        fill: url(#linear-gradient-2);
      }

      .cls-2, .cls-3 {
        fill: #fff;
      }

      .cls-4 {
        fill: url(#linear-gradient-3);
      }

      .cls-5 {
        fill: url(#linear-gradient);
      }

      .cls-6 {
        fill: url(#linear-gradient-4);
      }

      .cls-3 {
        font-family: Montserrat-Medium, Montserrat;
        font-size: 5.07px;
        font-weight: 500;
      }
    </style>
    <linearGradient id="linear-gradient" x1="7.25" y1="20.92" x2="9.2" y2="20.92" gradientUnits="userSpaceOnUse">
      <stop offset="0" stop-color="#f2bf3f"/>
      <stop offset="0" stop-color="#e7c04b"/>
      <stop offset=".32" stop-color="#f5f08e"/>
      <stop offset=".68" stop-color="#d7a82e"/>
      <stop offset="1" stop-color="#f5f197"/>
    </linearGradient>
    <linearGradient id="linear-gradient-2" x1="10.61" y1="19.7" x2="13.24" y2="19.7" xlink:href="#linear-gradient"/>
    <linearGradient id="linear-gradient-3" x1="18.58" y1="23.56" x2="65.37" y2="23.56" xlink:href="#linear-gradient"/>
    <linearGradient id="linear-gradient-4" x1="19.93" y1="27.96" x2="64.89" y2="27.96" xlink:href="#linear-gradient"/>
  </defs>
  <g id="Layer_1-2" data-name="Layer 1">
    <g id="logo">
      <g>
        <path class="cls-2" d="m36.48,15.91c0-1.22.07-1.98.2-2.27.19-.4.43-.68.74-.85.45-.26,1.04-.38,1.78-.38h.81v-.67h-10.22l-2.74,6.54-1.3,3.11c.45.13.89.26,1.32.39l1.37-3.2,2-4.68v18.27c0,1.24-.07,2-.2,2.29-.19.41-.43.7-.74.87-.44.26-1.04.38-1.78.38h-.81v.67h13.1v-.67h-.81c-.7,0-1.27-.12-1.68-.35-.42-.24-.7-.51-.83-.83-.13-.31-.2-1.1-.2-2.36V15.91Z"/>
        <path class="cls-2" d="m27.08,21.77l-6.25,14.61h-.44l-7.15-16.32-.51-1.17-2.11-4.83v17.36c0,1.21.03,1.96.09,2.24.16.6.51,1.1,1.05,1.48s1.38.57,2.53.57v.67H5.69v-.67h.26c.55.01,1.07-.07,1.56-.26.48-.19.84-.44,1.09-.75.25-.32.44-.76.57-1.33.03-.13.04-.75.04-1.85v-15.6c0-1.25-.07-2.03-.2-2.34-.13-.31-.41-.58-.83-.82-.42-.24-.98-.35-1.68-.35h-.8v-.67h10.25l2.64,6.08,1,2.31,3.41,7.86,2.77-6.6c.45.13.89.26,1.32.39Z"/>
        <path class="cls-2" d="m53.47,36.49l-8.17-18.48c-.99-2.23-1.76-3.64-2.31-4.23-.4-.44-.99-.74-1.76-.89v-.94h12.89v.94c-.81,0-1.37.14-1.66.43-.42.37-.62.82-.62,1.33,0,.63.38,1.81,1.14,3.54l4,8.94,3.19-7.72c.92-2.21,1.38-3.77,1.38-4.69,0-.53-.19-.96-.58-1.29s-1.08-.51-2.06-.55v-.94h7.94v.94c-.76.1-1.38.38-1.87.84-.48.46-1.21,1.81-2.18,4.05l-8.09,18.71h-1.22Z"/>
        <path class="cls-5" d="m9.2,20.15v.78c-.5.17-.99.35-1.48.57l-.47.21s.22-.48.68-.93c0,0,.45-.26,1.27-.62Z"/>
        <path class="cls-1" d="m12.72,18.89l.51,1.17c-.88.1-1.76.25-2.63.46v-.94c.61-.23,1.32-.46,2.11-.69Z"/>
        <path class="cls-4" d="m65.37,23.3c-.28.26-12.62,11.76-28.88,2.52-.4-.22-.8-.46-1.2-.71,0,0-1.89-1.02-4.84-2.16-1.01-.39-2.14-.79-3.37-1.17-.43-.13-.87-.26-1.32-.39-1.92-.54-4.01-1-6.18-1.25l-1-2.31c2.52-.22,5.39-.15,8.48.45.46.09.92.19,1.39.3.66.16,1.32.34,2,.55,1.71.53,3.46,1.24,5.26,2.16,0,0,.27.15.78.4,3.53,1.73,18.38,8.27,28.88,1.62Z"/>
        <path class="cls-6" d="m64.15,26.95s-8.72,4.83-18.22,4.82c0,0-7.5.62-26-9.54,0,0,15.07,8.89,18.25,9.78.18.05.36.12.54.19,1.97.82,12.83,4.68,25.43-4.79l.73-.66s.23-.3-.72.19Z"/>
      </g>
      <text class="cls-3" transform="translate(3.36 4.31)"><tspan x="0" y="0">NEW</tspan></text>
      <path class="cls-2" d="m17.02,6.99v.38c0,.06-.01.11-.03.16-.12.32-.2.65-.37.94-.26.45-.69.73-1.2.85-.54.12-1.08.1-1.63.01-.96-.16-1.87-.47-2.75-.84-.17-.07-.34-.15-.51-.21-.07-.02-.17,0-.24.04-.37.14-.73.3-1.1.44-.8.3-1.61.54-2.46.62-.56.05-1.12.03-1.64-.21-.24-.11-.46-.26-.62-.48-.13-.17-.23-.36-.33-.55-.17-.31-.23-.65-.23-1,0-.53.35-.92.81-1.1.21-.08.44-.12.67-.16-.16.15-.32.3-.46.46-.14.17-.22.37-.22.6,0,.22.19.41.41.42.28.02.54-.04.8-.12.38-.11.72-.29,1.06-.49.42-.25.84-.49,1.28-.72.36-.18.72-.37,1.12-.44.27-.05.54-.02.79.06.19.06.36.08.55.01.5-.18.99-.1,1.44.13.58.29,1.16.61,1.73.93.49.28.99.54,1.56.62.16.02.32,0,.48-.01.14-.02.24-.14.26-.29.03-.3-.02-.57-.27-.78-.14-.12-.26-.25-.38-.4.18.04.37.07.54.13.3.1.58.25.74.54.08.14.13.31.2.46Z"/>
    </g>
  </g>
</svg>