<svg width="154" height="63" viewBox="0 0 154 63" fill="none" xmlns="http://www.w3.org/2000/svg">
<g id="Isolation_Mode" clip-path="url(#clip0_22_5)">
<path id="Vector" d="M77.5524 10.6379C77.5524 7.52641 77.7275 5.59826 78.0652 4.8452C78.4358 3.94161 79.0891 3.18009 79.9288 2.67293C81.0405 2.02194 82.533 1.69782 84.4063 1.70058H86.4533V0H60.7262L53.8265 16.6334L50.5413 24.5487C51.6752 24.8715 52.7884 25.2025 53.8765 25.5459L57.3243 17.403L62.3646 5.50309V51.9938C62.3646 55.1385 62.1895 57.0831 61.8519 57.8197C61.4937 58.7435 60.8387 59.5244 59.9883 60.0416C58.871 60.6912 57.3743 61.0139 55.5107 61.0139H53.4637V62.7269H86.4533V61.0139H84.4063C82.6359 61.0139 81.2226 60.7119 80.1664 60.1078C79.2578 59.6534 78.5253 58.9147 78.0819 58.0059C77.7442 57.2031 77.5691 55.2005 77.5691 51.9938L77.5524 10.6379Z" fill="white"/>
<path id="Vector_2" d="M53.8726 25.5459L38.122 62.7269H37.0047L19.0069 21.189L17.7187 18.2098L12.3948 5.91685V50.0988C12.3948 53.18 12.4727 55.0764 12.6283 55.7881C13.0235 57.3171 13.9584 58.6547 15.2631 59.5575C16.6139 60.5312 18.7346 61.0167 21.6251 61.0139V62.7269H-0.012207V61.0139H0.633995C1.97248 61.0552 3.30555 60.8272 4.55289 60.3436C5.62719 59.9606 6.57769 59.2974 7.30445 58.4238C8.01818 57.4053 8.50821 56.2494 8.74277 55.0309C8.80947 54.6916 8.83865 53.1193 8.83865 50.3098V10.6379C8.83865 7.4602 8.67189 5.47826 8.32586 4.6921C7.87362 3.79771 7.14252 3.07212 6.24135 2.62327C5.18241 2.02331 3.77328 1.72127 2.00144 1.72127H-0.012207V0H25.8358L32.5063 15.479L35.0077 21.3586L43.5959 41.3518L50.5624 24.5487C51.6838 24.8715 52.7886 25.2025 53.8726 25.5459Z" fill="white"/>
<path id="Vector_3" d="M120.343 63L99.7567 15.9755C97.2719 10.3151 95.3333 6.72917 93.9409 5.21755C92.9348 4.09486 91.4534 3.33905 89.4967 2.95011V0.550269H121.973V2.95011C119.925 2.95011 118.535 3.31698 117.804 4.05073C117.313 4.4668 116.918 4.98379 116.648 5.56599C116.377 6.14819 116.237 6.78175 116.237 7.42292C116.237 9.02558 117.196 12.0309 119.114 16.4389L129.178 39.196L137.215 19.5463C139.522 13.9246 140.676 9.94551 140.676 7.60912C140.694 6.98931 140.571 6.37338 140.317 5.80688C140.063 5.24037 139.684 4.73777 139.208 4.33623C138.227 3.49214 136.496 3.02735 134.014 2.94184V0.541992H154.025V2.94184C152.265 3.12916 150.614 3.88005 149.322 5.08101C148.102 6.24782 146.272 9.68484 143.832 15.3921L123.412 63H120.343Z" fill="white"/>
<path id="Vector_4" d="M150.306 29.4477C149.614 30.1056 118.526 59.3837 77.5524 35.8528C76.556 35.2818 75.5471 34.6819 74.5382 34.0405C70.5906 31.9755 66.5244 30.1421 62.3604 28.5499C59.8173 27.5568 56.9615 26.5266 53.8723 25.5625C52.7883 25.2191 51.6752 24.888 50.5371 24.5653C45.4524 23.0971 40.2601 22.0249 35.0074 21.3586L32.506 15.479C39.6459 14.8583 46.8384 15.247 53.8681 16.6334C55.0188 16.8568 56.1861 17.1134 57.3618 17.403C59.0294 17.8168 60.697 18.2802 62.4021 18.814C66.9654 20.2678 71.3952 22.1061 75.643 24.3088C75.643 24.3088 76.3309 24.6894 77.5941 25.3142C86.4533 29.7167 123.858 46.3418 150.306 29.4477Z" fill="url(#paint0_linear_22_5)"/>
<path id="Vector_5" d="M147.255 38.7285C147.255 38.7285 125.28 51.009 101.362 51.0049C101.362 51.0049 82.4677 52.5938 35.8621 26.7292C35.8621 26.7292 73.8003 49.3581 81.8257 51.6255C82.2855 51.7625 82.7366 51.9269 83.1764 52.1179C88.1293 54.2199 115.495 64.0261 147.217 39.9242L149.056 38.2692C149.056 38.2692 149.631 37.4996 147.255 38.7285Z" fill="url(#paint1_linear_22_5)"/>
</g>
<defs>
<linearGradient id="paint0_linear_22_5" x1="32.4643" y1="30.0891" x2="150.306" y2="30.0891" gradientUnits="userSpaceOnUse">
<stop stop-color="#E7C04B"/>
<stop offset="0.32" stop-color="#F5F08E"/>
<stop offset="0.68" stop-color="#D7A82E"/>
<stop offset="1" stop-color="#F5F197"/>
</linearGradient>
<linearGradient id="paint1_linear_22_5" x1="35.8621" y1="41.2979" x2="149.118" y2="41.2979" gradientUnits="userSpaceOnUse">
<stop stop-color="#E7C04B"/>
<stop offset="0.32" stop-color="#F5F08E"/>
<stop offset="0.68" stop-color="#D7A82E"/>
<stop offset="1" stop-color="#F5F197"/>
</linearGradient>
<clipPath id="clip0_22_5">
<rect width="154" height="63" fill="white"/>
</clipPath>
</defs>
</svg>
